 <svg  version="1.0" xmlns="http://www.w3.org/2000/svg"  width="200pt" height="200pt" viewBox="0 0 300.000000 283.000000"  preserveAspectRatio="xMidYMid meet">  <g transform="translate(0.000000,283.000000) scale(0.100000,-0.100000)" fill="#ed450c" stroke="none"> <path d="M1494 2729 c-156 -81 -262 -185 -348 -336 -42 -75 -86 -201 -85 -240 1 -20 3 -22 6 -8 44 192 173 389 328 500 54 39 173 105 189 105 3 0 6 -20 6 -44 0 -45 0 -45 -61 -77 -81 -44 -154 -110 -191 -176 -23 -41 -35 -53 -54 -53 -40 0 -101 -37 -129 -77 -24 -36 -71 -160 -63 -168 2 -2 19 31 37 73 40 91 76 127 149 148 46 14 56 21 69 52 21 51 126 151 196 187 31 17 59 37 61 45 16 56 16 78 1 94 -22 22 -24 22 -111 -25z"/> <path d="M1195 2703 c-201 -47 -442 -165 -613 -300 -51 -40 -272 -258 -272 -268 0 -3 -18 -31 -41 -61 -56 -76 -102 -164 -144 -275 -20 -52 -40 -103 -44 -114 -8 -18 -32 -118 -37 -155 -33 -227 -30 -385 10 -566 20 -90 84 -264 136 -367 37 -73 126 -202 177 -257 13 -14 23 -27 23 -30 0 -3 13 -14 29 -23 29 -17 30 -17 55 10 14 15 26 35 26 43 -1 8 -30 47 -65 85 -36 39 -65 75 -65 81 0 6 -7 17 -16 25 -19 16 -67 109 -60 116 3 3 -4 17 -14 31 -11 13 -20 31 -20 38 0 8 -4 14 -9 14 -9 0 -28 43 -33 75 -2 11 -6 22 -10 25 -13 10 -50 172 -43 188 3 9 2 13 -2 8 -14 -13 -30 154 -27 273 2 63 7 117 11 120 4 3 8 20 9 36 2 97 49 266 106 379 22 45 43 83 47 86 3 3 15 22 25 43 11 21 30 49 43 63 13 14 23 29 23 35 0 5 7 9 15 9 17 0 20 -16 5 -25 -12 -7 -79 -105 -109 -157 -23 -42 -14 -63 31 -73 23 -6 29 -3 39 19 7 14 16 23 22 19 6 -3 7 -1 3 5 -18 29 195 291 275 339 14 8 31 24 38 36 11 17 9 23 -13 45 l-26 26 -29 -22 c-17 -12 -32 -22 -34 -22 -5 0 -129 -127 -160 -164 -13 -16 -26 -25 -30 -20 -8 13 121 154 140 154 9 0 14 3 10 6 -8 9 80 84 167 143 93 62 207 120 306 155 53 19 89 40 123 72 26 24 53 41 59 38 6 -4 8 -3 5 3 -4 6 0 13 8 17 20 7 19 32 -1 40 -17 6 -18 6 -49 -1z m19 -39 c-21 -14 -52 -39 -69 -54 -17 -16 -68 -42 -115 -59 -108 -39 -261 -124 -356 -196 -97 -75 -277 -263 -339 -356 -256 -381 -291 -885 -91 -1314 54 -115 98 -183 176 -275 60 -68 62 -74 49 -96 -8 -12 -17 -23 -21 -23 -16 -1 -131 134 -184 215 -100 156 -177 357 -210 555 -25 154 -15 384 24 539 67 262 174 453 362 646 191 197 407 330 665 409 136 42 162 44 109 9z m-510 -402 c15 -18 15 -19 -7 -29 -13 -6 -59 -45 -103 -86 -78 -74 -160 -180 -213 -278 -23 -41 -29 -45 -49 -38 -20 8 -21 11 -11 31 54 101 164 242 263 336 48 45 91 82 95 82 4 0 15 -8 25 -18z"/> <path d="M215 1849 c-4 -6 -5 -12 -2 -15 2 -3 7 2 10 11 7 17 1 20 -8 4z"/> <path d="M186 1780 c-22 -56 -19 -65 5 -11 11 24 18 46 15 48 -2 2 -11 -14 -20 -37z"/> <path d="M151 1679 c-6 -18 -11 -37 -10 -43 0 -6 7 7 15 28 8 22 12 41 10 43 -2 2 -9 -10 -15 -28z"/> <path d="M127 1603 c-3 -4 -7 -33 -11 -63 l-6 -55 15 59 c14 54 15 80 2 59z"/> <path d="M101 1460 c-1 -14 -4 -36 -6 -50 l-6 -25 11 25 c6 13 9 36 7 50 l-4 25 -2 -25z"/> <path d="M89 1353 c-4 -88 3 -256 12 -308 12 -73 66 -266 83 -303 8 -15 33 -67 57 -117 41 -87 104 -178 178 -258 63 -68 44 -30 -26 53 -185 217 -294 528 -294 841 0 66 -2 119 -4 119 -3 0 -6 -12 -6 -27z"/> <path d="M1755 2526 c-72 -17 -140 -54 -197 -105 -46 -43 -116 -141 -100 -141 4 0 15 13 25 29 27 47 132 137 191 165 244 115 625 -7 892 -285 183 -192 294 -412 351 -694 25 -126 22 -383 -7 -509 -29 -129 -70 -246 -132 -374 l-50 -103 -27 25 -27 26 57 116 c61 123 88 209 115 364 24 138 15 378 -20 516 -89 356 -323 654 -656 832 -122 66 -219 94 -330 96 -89 1 -99 -1 -165 -33 -47 -23 -90 -55 -133 -98 -35 -36 -61 -67 -58 -70 3 -3 28 18 55 46 30 31 56 49 62 45 7 -4 9 -3 6 3 -9 15 89 66 151 78 148 30 357 -39 546 -179 69 -52 159 -128 180 -154 6 -7 26 -27 44 -44 17 -17 30 -33 28 -35 -2 -2 7 -16 21 -31 57 -62 166 -252 145 -252 -4 0 -1 -4 5 -8 25 -16 82 -199 98 -312 19 -131 16 -388 -3 -376 -4 2 -8 -21 -8 -53 -2 -90 -53 -240 -135 -392 -21 -40 -25 -74 -9 -84 6 -4 8 -10 5 -15 -7 -11 51 -24 66 -14 17 10 113 217 144 310 62 183 88 386 70 539 -3 28 -7 68 -9 90 -6 64 -28 157 -63 265 -26 78 -92 223 -105 228 -5 2 -8 8 -8 13 0 16 -88 145 -138 201 -66 76 -175 178 -189 178 -7 0 -13 4 -13 10 0 5 -15 17 -32 26 -18 9 -35 20 -38 24 -3 4 -22 15 -42 23 -21 9 -38 20 -38 25 0 5 -6 9 -12 9 -13 1 -106 37 -140 54 -31 16 -189 39 -257 38 -36 0 -88 -6 -116 -13z"/> <path d="M1786 2411 c-30 -33 -17 -64 34 -80 25 -7 53 -18 62 -22 10 -5 25 -9 34 -9 9 0 40 -13 70 -30 30 -16 54 -27 54 -23 0 3 8 0 18 -9 9 -8 28 -19 42 -25 53 -22 168 -111 248 -191 45 -45 82 -86 82 -91 0 -5 16 -26 35 -47 39 -44 148 -250 140 -265 -4 -5 -2 -9 4 -9 5 0 14 -19 20 -42 5 -24 14 -61 20 -83 14 -61 23 -134 22 -198 -1 -70 14 -97 52 -97 54 0 67 15 67 78 0 131 -34 322 -71 400 -12 24 -22 48 -23 55 -3 14 -48 109 -56 117 -3 3 -29 41 -59 84 -154 225 -405 406 -665 481 -106 30 -108 30 -130 6z m119 -26 c244 -71 482 -237 637 -445 141 -190 208 -376 224 -628 l7 -101 -35 2 -35 2 -7 102 c-31 484 -379 900 -863 1032 -44 12 -48 17 -37 45 8 20 6 21 109 -9z"/> <path d="M810 2249 c-99 -64 -210 -166 -272 -248 -23 -31 -47 -60 -53 -66 -6 -5 -14 -18 -18 -28 -4 -11 -12 -15 -18 -11 -7 4 -9 3 -6 -3 4 -6 -9 -39 -28 -73 -19 -34 -35 -65 -35 -70 0 -4 -8 -18 -19 -31 -20 -26 -21 -28 -21 -64 0 -14 -5 -25 -11 -25 -5 0 -8 4 -5 9 3 4 -11 27 -30 50 -29 33 -39 39 -50 30 -8 -6 -14 -18 -14 -25 0 -8 -4 -22 -10 -32 -11 -19 -45 -170 -43 -189 0 -7 -2 -13 -6 -13 -13 0 -14 -249 -1 -358 11 -83 31 -177 51 -239 6 -18 7 -38 3 -44 -4 -8 -3 -9 4 -5 7 4 12 3 12 -3 0 -6 18 -49 40 -96 23 -46 41 -88 42 -92 0 -5 9 -14 19 -21 15 -11 24 -10 48 3 47 24 47 46 2 138 -22 46 -42 94 -43 108 -2 13 -6 26 -10 29 -4 3 -9 15 -11 25 -2 11 -7 27 -10 35 -39 104 -58 469 -29 540 8 18 11 20 11 7 1 -10 16 -25 37 -34 49 -24 66 -10 80 63 21 102 114 324 136 324 4 0 8 5 8 11 0 14 86 125 137 175 51 51 106 100 165 147 49 38 57 60 35 87 -19 23 -38 21 -87 -11z m74 -8 c16 -18 14 -20 -46 -64 -97 -69 -255 -240 -313 -338 -54 -92 -109 -227 -126 -311 -16 -81 -14 -79 -49 -66 -30 10 -31 13 -25 47 12 69 57 206 87 266 81 159 248 351 387 443 35 23 64 42 66 42 1 0 10 -8 19 -19z m-603 -562 c20 -28 21 -36 11 -78 -30 -126 -36 -177 -36 -311 0 -218 35 -382 117 -553 l43 -87 -27 -26 -27 -26 -26 45 c-37 63 -91 200 -115 292 -51 195 -53 433 -6 630 15 61 28 118 28 128 2 25 13 21 38 -14z m40 -92 c-8 -8 -11 -7 -11 4 0 20 13 34 18 19 3 -7 -1 -17 -7 -23z m-1 -21 c0 -3 -4 -8 -10 -11 -5 -3 -10 -1 -10 4 0 6 5 11 10 11 6 0 10 -2 10 -4z m-10 -36 c0 -5 -5 -10 -11 -10 -5 0 -7 5 -4 10 3 6 8 10 11 10 2 0 4 -4 4 -10z"/> <path d="M383 1585 c-3 -9 -3 -18 -1 -21 3 -3 8 4 11 16 6 23 -1 27 -10 5z"/> <path d="M264 1640 c1 -17 4 -30 9 -30 10 0 9 48 -2 54 -4 3 -8 -8 -7 -24z"/> <path d="M250 1543 c-30 -141 -34 -357 -10 -483 29 -153 118 -398 147 -407 7 -3 -5 31 -26 74 -47 95 -86 216 -107 331 -21 118 -21 343 0 451 9 46 14 86 12 88 -2 3 -10 -22 -16 -54z"/> <path d="M1440 2228 c-12 -4 -26 -6 -31 -2 -5 3 -9 0 -9 -5 0 -6 -7 -11 -15 -11 -24 0 -44 -42 -43 -90 0 -25 0 -67 -1 -95 -1 -27 0 -78 1 -113 l3 -62 -30 1 c-16 1 -51 1 -77 0 -42 -1 -49 -5 -63 -31 -26 -50 -13 -110 24 -110 6 0 7 -14 4 -34 -5 -31 -2 -37 28 -56 19 -12 26 -19 16 -16 -25 8 -56 -30 -57 -70 0 -56 20 -64 169 -64 l131 0 -1 -82 -1 -83 -47 -45 c-26 -25 -65 -62 -87 -82 -65 -58 -75 -89 -76 -232 0 -111 2 -128 22 -164 12 -22 33 -45 47 -51 13 -6 22 -15 19 -20 -4 -5 -1 -11 6 -13 13 -5 12 -149 -1 -158 -4 -3 -24 -27 -43 -54 l-36 -49 -138 -3 c-77 -2 -153 1 -170 7 -50 15 -74 50 -81 110 -5 53 -3 59 89 239 52 102 111 214 131 250 20 36 62 115 94 177 31 61 60 110 64 108 3 -2 6 1 7 8 1 7 5 27 8 45 5 28 4 32 -15 32 -11 0 -43 -14 -71 -31 -50 -31 -83 -71 -132 -159 -14 -25 -45 -80 -69 -124 -77 -137 -84 -150 -124 -226 -22 -41 -43 -77 -46 -80 -4 -3 -9 -15 -13 -28 -4 -12 -12 -19 -18 -16 -6 4 -8 2 -4 -4 3 -6 -4 -30 -16 -54 -18 -34 -23 -59 -23 -118 1 -106 31 -156 120 -203 36 -18 61 -21 244 -24 203 -4 203 -4 240 -31 20 -15 38 -30 39 -35 2 -4 7 -5 12 -2 4 3 13 -2 20 -10 13 -15 66 -21 72 -7 2 4 29 24 60 44 l58 38 190 0 c118 0 205 4 228 12 41 13 99 76 119 130 25 69 13 164 -25 211 -9 9 -12 17 -8 17 3 0 -4 17 -17 38 -13 20 -39 66 -59 102 -19 36 -47 85 -62 110 -14 25 -40 70 -57 100 -27 50 -64 117 -126 228 -22 40 -73 85 -126 112 -24 12 -29 12 -41 -1 -12 -12 -4 -35 59 -162 41 -82 79 -154 84 -161 6 -7 8 -16 4 -19 -3 -4 -2 -7 4 -7 6 0 18 -17 27 -37 19 -46 59 -117 76 -138 7 -8 9 -15 5 -15 -5 0 -2 -8 7 -17 8 -10 34 -56 57 -103 24 -47 53 -100 64 -119 24 -40 26 -111 3 -146 -19 -30 -44 -35 -189 -39 l-119 -4 -10 29 c-5 16 -13 29 -17 29 -4 0 -26 17 -49 38 l-42 39 -1 184 c0 101 1 200 1 219 8 191 5 248 -13 260 -34 21 -63 -19 -72 -96 -6 -47 -15 -60 -76 -106 -13 -10 -20 -18 -17 -18 4 0 -3 -11 -16 -25 -25 -26 -35 -62 -37 -124 l-1 -36 -8 34 c-4 19 -8 73 -8 121 l0 87 90 84 c49 46 96 96 103 110 18 33 23 181 7 187 -7 2 -12 7 -12 12 0 4 39 7 88 6 100 -2 111 5 112 71 0 33 -5 45 -21 53 -19 11 -19 13 -5 35 9 14 16 35 16 47 1 15 12 30 33 43 26 17 31 26 29 50 -6 67 -22 80 -107 89 -77 9 -75 4 -75 145 0 158 -7 198 -34 213 -28 16 -120 26 -146 16z m130 -33 c43 -22 37 -35 -7 -19 -57 20 -130 16 -197 -12 -14 -5 -17 -4 -11 5 23 39 159 55 215 26z m3 -37 c15 -6 27 -15 27 -20 0 -5 -10 -3 -22 3 -29 16 -134 15 -181 0 -44 -15 -60 -9 -25 10 50 28 139 31 201 7z m-4 -29 c17 -6 31 -15 31 -20 0 -5 -12 -4 -26 1 -36 14 -132 12 -177 -4 -27 -10 -37 -11 -34 -2 10 30 143 47 206 25z m20 -44 c15 -16 14 -17 -9 -9 -37 13 -171 9 -198 -5 -13 -7 -26 -10 -30 -7 -9 10 5 18 55 32 62 18 160 11 182 -11z m-9 -25 c11 -6 20 -15 20 -21 0 -6 -9 -5 -22 3 -28 15 -153 14 -192 -1 -34 -14 -47 -7 -16 9 53 29 165 34 210 10z m-11 -31 c17 -6 31 -15 31 -21 0 -5 -9 -6 -22 -1 -35 12 -180 8 -207 -6 -19 -11 -23 -11 -19 1 11 32 150 50 217 27z m22 -50 c20 -17 21 -19 4 -12 -27 11 -183 10 -219 -1 -22 -7 -27 -6 -21 3 13 22 48 30 131 30 69 1 85 -2 105 -20z m-28 -20 c20 -5 37 -15 37 -21 0 -6 -7 -7 -17 -3 -37 16 -147 17 -191 2 -29 -10 -42 -11 -39 -4 9 29 142 45 210 26z m17 -39 c10 -5 18 -21 18 -34 0 -23 -3 -24 -32 -18 -17 4 -72 7 -122 7 -93 -1 -107 6 -76 37 26 26 167 32 212 8z m184 -106 c18 -18 21 -69 5 -80 -12 -7 -581 -6 -588 2 -9 9 -4 64 9 78 19 24 551 24 574 0z m-49 -149 l0 -30 -245 0 c-228 0 -245 1 -248 18 -9 47 -8 48 250 45 l243 -3 0 -30z m-95 -84 l105 -6 3 -33 c2 -18 -1 -39 -6 -45 -8 -9 -74 -11 -259 -7 l-248 5 -3 33 c-6 58 4 62 162 61 77 -1 188 -4 246 -8z m-70 -224 l0 -82 -105 -101 -106 -101 3 -133 3 -132 30 -24 30 -23 0 95 0 95 73 65 c70 64 72 67 72 112 0 31 7 57 21 77 l21 30 -5 -313 c-2 -173 -1 -330 4 -350 4 -20 19 -44 33 -54 56 -42 69 -56 71 -79 2 -24 4 -24 106 -27 210 -6 267 17 276 114 5 56 4 60 -282 589 -30 55 -135 259 -144 278 -2 5 22 -8 53 -29 56 -37 77 -65 151 -199 15 -27 89 -160 163 -294 122 -218 136 -249 140 -300 5 -80 -35 -157 -98 -189 -41 -21 -57 -22 -240 -22 l-196 0 -72 -51 -72 -50 -73 50 -73 51 -165 0 c-265 0 -322 18 -370 116 -35 74 -30 128 21 232 56 113 318 581 339 606 19 22 121 89 127 83 3 -2 -25 -60 -62 -128 -321 -600 -344 -647 -344 -704 0 -54 28 -105 70 -130 31 -18 56 -20 208 -23 l172 -4 0 30 c0 21 10 41 33 63 30 31 32 37 38 123 5 84 4 92 -15 106 -12 8 -36 29 -53 46 l-33 32 0 134 c1 86 5 141 13 155 7 12 54 61 105 109 l92 86 0 84 c0 82 1 84 20 74 18 -9 20 -21 20 -93z"/> <path d="M1415 1913 c-66 -10 -38 -18 65 -18 60 0 106 3 102 7 -9 9 -129 17 -167 11z"/> <path d="M1460 1812 c0 -5 7 -9 15 -9 8 0 15 4 15 9 0 4 -7 8 -15 8 -8 0 -15 -4 -15 -8z"/> <path d="M1470 1766 c6 -8 18 -12 26 -9 19 7 7 23 -18 23 -17 0 -18 -3 -8 -14z"/> <path d="M1465 1670 c-3 -5 -1 -10 4 -10 6 0 11 5 11 10 0 6 -2 10 -4 10 -3 0 -8 -4 -11 -10z"/> <path d="M1470 1560 c-12 -8 -9 -10 13 -10 16 0 26 4 22 10 -8 12 -16 12 -35 0z"/> <path d="M1473 1513 c9 -2 23 -2 30 0 6 3 -1 5 -18 5 -16 0 -22 -2 -12 -5z"/> <path d="M1487 972 l-47 -48 0 -193 0 -193 -35 -41 c-29 -33 -35 -49 -33 -77 3 -30 11 -40 60 -74 l56 -39 81 59 c44 33 80 62 80 65 1 4 -14 17 -33 30 -67 45 -69 55 -70 320 -1 132 -3 239 -6 239 -3 0 -27 -22 -53 -48z m31 -226 c-2 -118 0 -212 5 -209 4 2 7 -2 7 -9 0 -8 18 -33 41 -56 33 -35 38 -46 29 -57 -7 -8 -18 -15 -25 -15 -8 0 -15 -3 -17 -7 -2 -5 -15 -19 -30 -32 l-28 -24 -55 28 c-30 15 -56 32 -56 39 -3 32 6 54 37 87 l34 35 1 195 c1 184 3 195 23 216 11 12 25 22 29 22 4 1 7 -95 5 -213z"/> <path d="M849 570 c-5 -28 10 -78 29 -98 6 -7 12 -17 12 -22 0 -5 10 -15 23 -21 l22 -12 -21 24 c-31 35 -47 69 -54 114 -5 33 -7 36 -11 15z"/> <path d="M1370 356 c0 -2 7 -7 16 -10 8 -3 12 -2 9 4 -6 10 -25 14 -25 6z"/> <path d="M1410 337 c0 -3 12 -12 26 -22 15 -9 23 -12 20 -6 -7 11 -46 35 -46 28z"/> <path d="M2654 993 c-8 -21 -18 -51 -21 -68 -7 -40 -50 -159 -80 -217 -19 -40 -21 -51 -11 -67 20 -33 54 -46 74 -30 33 27 124 248 148 361 8 35 -16 58 -60 58 -30 0 -36 -5 -50 -37z m90 -10 c-28 -125 -114 -350 -141 -366 -6 -4 -20 4 -32 17 l-21 23 24 44 c24 44 76 187 96 267 10 39 13 42 46 42 32 0 34 -2 28 -27z"/> <path d="M2449 588 c-18 -24 -56 -66 -83 -94 -73 -73 -236 -196 -236 -177 0 4 -6 -1 -12 -10 -21 -26 -166 -93 -260 -121 -49 -13 -92 -28 -98 -31 -12 -7 -13 -65 -2 -81 13 -19 79 -8 174 30 36 14 72 26 81 26 9 0 17 4 17 9 0 5 14 14 32 22 17 7 64 37 105 66 41 29 76 53 79 53 3 0 39 35 80 78 73 75 192 238 181 248 -2 3 -30 -32 -61 -76 -75 -107 -195 -225 -300 -295 -82 -54 -240 -126 -308 -140 -18 -3 -40 -9 -49 -11 -12 -3 -18 3 -21 25 -4 29 -3 29 91 57 52 15 126 43 163 61 175 84 390 257 446 361 30 54 23 54 -19 0z"/> <path d="M474 597 c17 -69 133 -229 226 -312 79 -71 257 -170 343 -191 24 -6 29 -2 43 32 16 38 16 39 -11 61 -14 13 -36 23 -48 23 -26 0 -207 89 -207 102 0 4 -5 8 -11 8 -20 0 -85 54 -176 148 -51 52 -93 99 -93 104 0 5 -10 19 -21 31 -32 33 -18 -1 30 -71 94 -139 278 -273 469 -342 45 -17 61 -27 57 -37 -3 -8 -5 -22 -5 -30 0 -23 -38 -11 -175 57 -93 46 -137 75 -195 128 -67 62 -151 162 -135 162 3 0 -12 27 -35 59 -22 33 -40 64 -40 70 0 5 -5 13 -11 17 -8 5 -10 -1 -5 -19z"/> <path d="M599 435 c91 -110 248 -218 386 -265 96 -33 87 -22 -20 23 -128 55 -223 117 -322 209 -44 42 -63 56 -44 33z"/> <path d="M1121 306 c-27 -29 -27 -42 4 -62 14 -9 22 -21 18 -27 -3 -6 -1 -7 6 -3 6 4 33 -11 64 -36 28 -24 78 -61 110 -82 32 -21 61 -45 66 -53 4 -8 12 -15 17 -15 5 0 20 -5 34 -10 29 -11 48 -3 129 50 74 48 243 175 259 194 16 19 6 45 -20 54 -20 6 -26 2 -150 -86 -32 -22 -58 -37 -58 -33 0 5 -4 3 -8 -3 -16 -25 -112 -75 -131 -69 -20 6 -233 146 -266 175 -33 29 -51 30 -74 6z m87 -39 c94 -71 242 -167 259 -167 27 0 179 93 284 173 27 20 42 25 58 19 19 -7 10 -16 -77 -83 -120 -94 -247 -179 -265 -179 -18 0 -149 88 -265 177 -84 65 -89 71 -74 87 9 9 18 16 20 16 2 0 29 -19 60 -43z"/> <path d="M1165 265 c17 -13 62 -46 100 -72 39 -26 72 -50 75 -53 9 -11 81 -52 85 -48 2 2 -52 41 -121 87 -68 46 -129 90 -135 98 -6 7 -17 13 -23 13 -6 0 3 -11 19 -25z"/> </g> </svg> 