<svg width="1821.292" height="293.753" viewBox="0 0 1821.292 293.753" xmlns="http://www.w3.org/2000/svg"><g id="svgGroup" stroke-linecap="round" fill-rule="evenodd" font-size="9pt" fill="#134675" style="fill:#134675"><path d="M 1164.846 95.118 L 1164.846 288.087 L 1128.908 288.087 L 1128.908 6.837 L 1179.299 6.837 L 1350.197 200.001 L 1350.197 6.837 L 1385.939 6.837 L 1385.939 288.087 L 1335.549 288.087 L 1164.846 95.118 Z M 1574.025 239.063 L 1613.869 198.633 A 93.138 93.138 0 0 0 1628.908 223.536 A 115.082 115.082 0 0 0 1648.483 242.127 A 107.22 107.22 0 0 0 1649.904 243.165 A 105.753 105.753 0 0 0 1670.191 254.667 A 97.097 97.097 0 0 0 1673.635 256.055 A 76.067 76.067 0 0 0 1685.234 259.497 A 57.229 57.229 0 0 0 1696.877 260.743 A 159.199 159.199 0 0 0 1713.123 259.944 A 133.875 133.875 0 0 0 1721.096 258.887 Q 1732.424 257.032 1740.822 252.735 A 36.623 36.623 0 0 0 1749.522 246.634 A 32.095 32.095 0 0 0 1754.006 241.309 A 27.224 27.224 0 0 0 1757.939 231.859 Q 1758.738 228.213 1758.788 224.002 A 47.594 47.594 0 0 0 1758.791 223.438 A 30.304 30.304 0 0 0 1758.036 216.513 A 23.062 23.062 0 0 0 1755.08 209.376 Q 1751.369 203.516 1745.412 199.317 A 58.954 58.954 0 0 0 1736.437 194.143 A 70.341 70.341 0 0 0 1731.838 192.188 A 143.632 143.632 0 0 0 1716.311 187.208 A 408.656 408.656 0 0 0 1700.783 183.497 Q 1693.166 181.837 1687.307 180.079 A 1597.078 1597.078 0 0 1 1669.472 174.824 A 1814.496 1814.496 0 0 1 1663.283 172.95 A 298.117 298.117 0 0 1 1638.674 164.258 Q 1626.564 159.376 1615.725 153.028 A 85.178 85.178 0 0 1 1596.682 137.989 A 67.901 67.901 0 0 1 1583.596 117.872 A 59.529 59.529 0 0 1 1579.519 103.099 A 78.814 78.814 0 0 1 1578.713 91.602 Q 1578.713 73.829 1583.107 60.059 A 80.248 80.248 0 0 1 1589.96 44.349 A 68.319 68.319 0 0 1 1595.51 36.133 Q 1603.518 25.977 1614.455 19.044 A 103.355 103.355 0 0 1 1636.851 8.446 A 114.929 114.929 0 0 1 1638.479 7.911 A 150.344 150.344 0 0 1 1660.839 2.634 A 170.074 170.074 0 0 1 1666.311 1.856 A 241.519 241.519 0 0 1 1696.486 0.001 A 197.402 197.402 0 0 1 1717.824 1.103 A 151.817 151.817 0 0 1 1734.865 3.907 Q 1752.15 7.813 1766.799 15.04 Q 1781.447 22.266 1793.654 32.325 A 195.451 195.451 0 0 1 1816.604 54.688 L 1776.76 95.118 Q 1772.072 81.055 1763.772 69.727 A 103.761 103.761 0 0 0 1749.669 53.994 A 93.318 93.318 0 0 0 1745.314 50.294 A 85.514 85.514 0 0 0 1729.531 40.223 A 76.475 76.475 0 0 0 1724.025 37.794 Q 1712.893 33.399 1702.541 33.399 A 171.005 171.005 0 0 0 1688.06 33.986 A 134.346 134.346 0 0 0 1677.736 35.255 Q 1666.989 37.015 1659.142 40.885 A 47.484 47.484 0 0 0 1658.303 41.309 A 33.517 33.517 0 0 0 1649.674 47.609 A 30.189 30.189 0 0 0 1645.705 52.637 Q 1641.336 59.571 1641.216 69.739 A 48.871 48.871 0 0 0 1641.213 70.313 A 35.56 35.56 0 0 0 1641.761 76.718 Q 1642.562 81.092 1644.533 84.571 A 31.658 31.658 0 0 0 1653.42 94.532 A 50.471 50.471 0 0 0 1663.432 100.23 A 57.958 57.958 0 0 0 1666.018 101.27 Q 1673.049 103.907 1680.568 105.86 A 268.567 268.567 0 0 0 1695.412 109.278 A 184.273 184.273 0 0 1 1702.419 110.816 A 142.916 142.916 0 0 1 1708.791 112.501 A 5672.512 5672.512 0 0 1 1720.803 115.919 A 6555.66 6555.66 0 0 1 1733.4 119.532 A 271.413 271.413 0 0 1 1758.791 128.223 Q 1771.291 133.204 1782.619 139.649 A 88.194 88.194 0 0 1 1802.407 154.842 A 83.54 83.54 0 0 1 1802.541 154.981 A 68.934 68.934 0 0 1 1816.213 175.489 A 59.73 59.73 0 0 1 1820.516 190.921 A 78.358 78.358 0 0 1 1821.291 202.149 A 122.078 122.078 0 0 1 1820.299 218.107 Q 1819.157 226.759 1816.701 234.18 A 79.436 79.436 0 0 1 1809.514 250.065 A 68.037 68.037 0 0 1 1803.811 258.204 A 75.591 75.591 0 0 1 1784.182 275.196 A 109.685 109.685 0 0 1 1760.309 285.874 A 121.326 121.326 0 0 1 1759.475 286.133 A 158.047 158.047 0 0 1 1735.096 291.485 A 177.332 177.332 0 0 1 1731.154 291.993 A 259.732 259.732 0 0 1 1700.783 293.751 A 239.408 239.408 0 0 1 1678.92 292.793 A 190.563 190.563 0 0 1 1663.283 290.723 A 144.931 144.931 0 0 1 1632.859 281.957 A 134.979 134.979 0 0 1 1630.959 281.153 A 146.297 146.297 0 0 1 1601.857 264.258 A 188.787 188.787 0 0 1 1585.309 250.382 A 238.809 238.809 0 0 1 1574.025 239.063 Z M 434.768 183.008 L 434.768 288.087 L 357.229 288.087 L 357.229 6.837 L 495.51 6.837 A 153.281 153.281 0 0 1 533.205 11.426 A 100.234 100.234 0 0 1 555.957 20.102 A 88.42 88.42 0 0 1 565.334 25.88 A 72.09 72.09 0 0 1 587.6 51.368 A 68.013 68.013 0 0 1 594.077 69.844 Q 595.9 78.821 595.9 89.258 A 74.933 74.933 0 0 1 588.576 121.973 Q 581.252 137.305 569.045 149.317 Q 556.838 161.329 541.018 169.239 A 109.005 109.005 0 0 1 508.205 179.688 Q 515.822 192.579 524.123 204.102 Q 532.424 215.626 540.92 225.684 A 333.993 333.993 0 0 0 553.346 239.615 A 288.501 288.501 0 0 0 557.814 244.239 Q 566.213 252.735 573.83 259.766 Q 591.799 276.173 609.377 288.087 L 512.697 288.087 A 146.363 146.363 0 0 1 499.194 273.283 A 184.849 184.849 0 0 1 490.432 261.329 Q 481.447 248.048 472.365 228.419 A 169.408 169.408 0 0 1 463.901 205.827 A 226.972 226.972 0 0 1 458.4 183.008 L 434.768 183.008 Z M 305.482 182.226 A 169.617 169.617 0 0 0 308.986 147.071 A 184.292 184.292 0 0 0 307.485 123.169 A 143.643 143.643 0 0 0 297.365 85.255 A 150.568 150.568 0 0 0 296.444 83.139 A 130.827 130.827 0 0 0 265.139 39.161 A 133.629 133.629 0 0 0 254.001 30.027 A 146.019 146.019 0 0 0 216.213 10.255 A 167.017 167.017 0 0 0 195.202 4.324 A 194.352 194.352 0 0 0 154.494 0.196 A 209.91 209.91 0 0 0 138.112 0.825 A 175.872 175.872 0 0 0 92.775 10.255 A 162.486 162.486 0 0 0 86.673 12.56 A 139.971 139.971 0 0 0 43.85 39.161 A 126.396 126.396 0 0 0 37.032 45.888 A 133.252 133.252 0 0 0 11.623 85.255 Q 0.002 112.501 0.002 147.071 Q 0.002 181.055 11.721 208.301 A 151.582 151.582 0 0 0 12.462 209.996 A 132.413 132.413 0 0 0 44.143 254.493 A 135.503 135.503 0 0 0 54.266 262.891 A 146.887 146.887 0 0 0 93.166 283.594 A 165.96 165.96 0 0 0 111.44 288.977 A 188.69 188.69 0 0 0 154.494 293.751 A 205.754 205.754 0 0 0 167.71 293.332 A 175.13 175.13 0 0 0 215.822 283.594 A 163.763 163.763 0 0 0 221.065 281.613 A 141.763 141.763 0 0 0 264.846 254.493 A 128.506 128.506 0 0 0 269.881 249.627 A 134.058 134.058 0 0 0 297.268 208.301 A 138.185 138.185 0 0 0 305.482 182.226 Z M 1077.161 182.226 A 169.617 169.617 0 0 0 1080.666 147.071 A 184.292 184.292 0 0 0 1079.165 123.169 A 143.643 143.643 0 0 0 1069.045 85.255 A 150.568 150.568 0 0 0 1068.123 83.139 A 130.827 130.827 0 0 0 1036.818 39.161 A 133.629 133.629 0 0 0 1025.681 30.027 A 146.019 146.019 0 0 0 987.893 10.255 A 167.017 167.017 0 0 0 966.882 4.324 A 194.352 194.352 0 0 0 926.174 0.196 A 209.91 209.91 0 0 0 909.792 0.825 A 175.872 175.872 0 0 0 864.455 10.255 A 162.486 162.486 0 0 0 858.352 12.56 A 139.971 139.971 0 0 0 815.529 39.161 A 126.396 126.396 0 0 0 808.712 45.888 A 133.252 133.252 0 0 0 783.303 85.255 Q 771.682 112.501 771.682 147.071 Q 771.682 181.055 783.4 208.301 A 151.582 151.582 0 0 0 784.142 209.996 A 132.413 132.413 0 0 0 815.822 254.493 A 135.503 135.503 0 0 0 825.945 262.891 A 146.887 146.887 0 0 0 864.846 283.594 A 165.96 165.96 0 0 0 883.12 288.977 A 188.69 188.69 0 0 0 926.174 293.751 A 205.754 205.754 0 0 0 939.39 293.332 A 175.13 175.13 0 0 0 987.502 283.594 A 163.763 163.763 0 0 0 992.745 281.613 A 141.763 141.763 0 0 0 1036.525 254.493 A 128.506 128.506 0 0 0 1041.561 249.627 A 134.058 134.058 0 0 0 1068.947 208.301 A 138.185 138.185 0 0 0 1077.161 182.226 Z M 723.439 6.837 L 723.439 288.087 L 645.9 288.087 L 645.9 6.837 L 723.439 6.837 Z M 1527.15 6.837 L 1527.15 288.087 L 1449.611 288.087 L 1449.611 6.837 L 1527.15 6.837 Z M 230.08 147.071 Q 230.08 134.18 228.908 120.704 Q 227.736 107.227 224.611 94.532 A 122.108 122.108 0 0 0 216.778 72.101 A 113.474 113.474 0 0 0 216.115 70.704 A 69.558 69.558 0 0 0 202.346 51.27 A 59.905 59.905 0 0 0 185.032 39.435 A 69.705 69.705 0 0 0 182.131 38.184 A 63.027 63.027 0 0 0 168.446 34.45 Q 162.114 33.432 154.957 33.4 A 104.026 104.026 0 0 0 154.494 33.399 Q 139.182 33.399 127.62 37.773 A 55.817 55.817 0 0 0 126.564 38.184 A 64.348 64.348 0 0 0 112.142 46.157 A 56.998 56.998 0 0 0 106.252 51.173 A 66.606 66.606 0 0 0 92.58 70.508 Q 87.307 81.641 84.279 94.239 A 177.042 177.042 0 0 0 80.08 120.411 Q 78.908 133.985 78.908 147.071 Q 78.908 159.962 80.08 173.438 Q 81.252 186.915 84.377 199.512 Q 87.502 212.11 92.873 223.243 A 69.558 69.558 0 0 0 106.643 242.676 A 60.998 60.998 0 0 0 123.602 254.419 A 71.094 71.094 0 0 0 126.857 255.86 A 62.04 62.04 0 0 0 140.542 259.67 Q 147.078 260.743 154.494 260.743 A 80.878 80.878 0 0 0 167.675 259.72 A 58.708 58.708 0 0 0 181.447 255.762 Q 192.971 250.782 201.369 242.286 A 75.533 75.533 0 0 0 215.334 222.559 A 121.022 121.022 0 0 0 224.123 198.731 A 177.693 177.693 0 0 0 228.713 172.852 A 254.953 254.953 0 0 0 230.059 150.208 A 231.277 231.277 0 0 0 230.08 147.071 Z M 1001.76 147.071 Q 1001.76 134.18 1000.588 120.704 Q 999.416 107.227 996.291 94.532 A 122.108 122.108 0 0 0 988.458 72.101 A 113.474 113.474 0 0 0 987.795 70.704 A 69.558 69.558 0 0 0 974.025 51.27 A 59.905 59.905 0 0 0 956.711 39.435 A 69.705 69.705 0 0 0 953.811 38.184 A 63.027 63.027 0 0 0 940.126 34.45 Q 933.794 33.432 926.636 33.4 A 104.026 104.026 0 0 0 926.174 33.399 Q 910.862 33.399 899.299 37.773 A 55.817 55.817 0 0 0 898.244 38.184 A 64.348 64.348 0 0 0 883.822 46.157 A 56.998 56.998 0 0 0 877.932 51.173 A 66.606 66.606 0 0 0 864.26 70.508 Q 858.986 81.641 855.959 94.239 A 177.042 177.042 0 0 0 851.76 120.411 Q 850.588 133.985 850.588 147.071 Q 850.588 159.962 851.76 173.438 Q 852.932 186.915 856.057 199.512 Q 859.182 212.11 864.553 223.243 A 69.558 69.558 0 0 0 878.322 242.676 A 60.998 60.998 0 0 0 895.281 254.419 A 71.094 71.094 0 0 0 898.537 255.86 A 62.04 62.04 0 0 0 912.222 259.67 Q 918.758 260.743 926.174 260.743 A 80.878 80.878 0 0 0 939.355 259.72 A 58.708 58.708 0 0 0 953.127 255.762 Q 964.65 250.782 973.049 242.286 A 75.533 75.533 0 0 0 987.014 222.559 A 121.022 121.022 0 0 0 995.803 198.731 A 177.693 177.693 0 0 0 1000.393 172.852 A 254.953 254.953 0 0 0 1001.738 150.208 A 231.277 231.277 0 0 0 1001.76 147.071 Z M 462.111 34.376 L 434.768 34.376 L 434.768 156.446 L 462.111 156.446 A 64.519 64.519 0 0 0 473.925 155.418 Q 481.135 154.075 487.022 150.978 A 40.766 40.766 0 0 0 487.209 150.88 A 49.005 49.005 0 0 0 504.299 136.036 A 61.955 61.955 0 0 0 512.754 119.136 A 73.024 73.024 0 0 0 514.064 114.649 A 100.619 100.619 0 0 0 517.177 90.914 A 111.972 111.972 0 0 0 517.189 89.258 A 92.208 92.208 0 0 0 516.008 73.955 Q 514.648 65.898 511.726 59.547 A 38.914 38.914 0 0 0 503.42 47.657 A 43.169 43.169 0 0 0 487.01 37.96 Q 476.419 34.376 462.111 34.376 Z" vector-effect="non-scaling-stroke"/></g></svg>